<svg width="64" height="64" viewBox="0 0 64 64" fill="none" xmlns="http://www.w3.org/2000/svg">
    <mask id="mask0" mask-type="alpha" maskUnits="userSpaceOnUse" x="0" y="0" width="64" height="64">
        <path d="M0 32C0 14.3269 14.3269 0 32 0C49.6731 0 64 14.3269 64 32C64 49.6731 49.6731 64 32 64H13.7143C6.1401 64 0 57.8599 0 50.2857V32Z" fill="#9F99F4"/>
    </mask>
    <g mask="url(#mask0)">
        <rect width="64" height="64" fill="#8079F0"/>
        <g filter="url(#filter0_d)">
            <circle cx="16.3555" cy="46.2221" r="22.7556" fill="url(#paint0_linear)"/>
        </g>
        <g filter="url(#filter1_d)">
            <circle cx="64.3556" cy="27.3778" r="36.6222" transform="rotate(-180 64.3556 27.3778)" fill="url(#paint1_linear)"/>
        </g>
    </g>
    <path d="M15.3671 25.6082H16.9717V32.597H20.5731V34.1184H15.3671V25.6082ZM24.4809 34.3086C23.736 34.3086 23.0783 34.0986 22.5078 33.6786C21.9373 33.2587 21.5372 32.6644 21.3074 31.8958L22.8169 31.3015C22.9357 31.7532 23.1378 32.1137 23.423 32.3831C23.7083 32.6525 24.0649 32.7872 24.4927 32.7872C24.8493 32.7872 25.1544 32.7 25.4079 32.5257C25.6615 32.3435 25.7883 32.0939 25.7883 31.7769C25.7883 31.46 25.6655 31.2024 25.4198 31.0044C25.1821 30.7983 24.7542 30.5804 24.1362 30.3506L23.6132 30.1605C23.0665 29.9703 22.599 29.6811 22.2107 29.2928C21.8224 28.8966 21.6283 28.4014 21.6283 27.8071C21.6283 27.3634 21.7432 26.9592 21.973 26.5948C22.2028 26.2303 22.5276 25.945 22.9476 25.739C23.3676 25.525 23.843 25.4181 24.3739 25.4181C25.1425 25.4181 25.7487 25.6003 26.1924 25.9648C26.6361 26.3214 26.9412 26.7413 27.1076 27.2247L25.6932 27.819C25.606 27.5575 25.4515 27.3396 25.2297 27.1653C25.0157 26.983 24.7384 26.8919 24.3977 26.8919C24.049 26.8919 23.7598 26.9751 23.53 27.1415C23.3081 27.3 23.1972 27.51 23.1972 27.7714C23.1972 28.025 23.3042 28.2429 23.5181 28.4252C23.7321 28.5995 24.0847 28.7698 24.5759 28.9362L25.1108 29.1145C25.8477 29.3681 26.4103 29.7048 26.7986 30.1248C27.1948 30.5368 27.3929 31.0796 27.3929 31.7532C27.3929 32.3078 27.2502 32.7793 26.965 33.1676C26.6797 33.5479 26.3113 33.8332 25.8596 34.0233C25.4159 34.2135 24.9563 34.3086 24.4809 34.3086ZM33.7276 25.6082H35.5699L38.7671 34.1184H36.9961L36.283 32.086H33.0263L32.3132 34.1184H30.5422L33.7276 25.6082ZM35.76 30.6121L35.0112 28.4727L34.7022 27.4505H34.6071L34.2981 28.4727L33.5374 30.6121H35.76ZM39.7128 28.0567H41.1747V28.7936H41.2698C41.4362 28.5321 41.6779 28.3142 41.9948 28.1399C42.3118 27.9576 42.6763 27.8665 43.0883 27.8665C43.6351 27.8665 44.1303 28.0052 44.574 28.2825C45.0257 28.5519 45.3783 28.9323 45.6319 29.4236C45.8854 29.9148 46.0122 30.4695 46.0122 31.0876C46.0122 31.7135 45.8854 32.2722 45.6319 32.7634C45.3783 33.2468 45.0257 33.6271 44.574 33.9045C44.1303 34.1739 43.6351 34.3086 43.0883 34.3086C42.6763 34.3086 42.3078 34.2214 41.9829 34.0471C41.666 33.8728 41.4283 33.6549 41.2698 33.3934H41.1747L41.2698 34.2492V36.6857H39.7128V28.0567ZM42.8149 32.8704C43.1081 32.8704 43.3815 32.7951 43.6351 32.6446C43.8886 32.494 44.0907 32.284 44.2412 32.0146C44.3918 31.7452 44.4671 31.4362 44.4671 31.0876C44.4671 30.7389 44.3918 30.4299 44.2412 30.1605C44.0907 29.8911 43.8886 29.685 43.6351 29.5424C43.3815 29.3919 43.1081 29.3166 42.8149 29.3166C42.5297 29.3166 42.2603 29.3919 42.0067 29.5424C41.7532 29.685 41.5511 29.8911 41.4005 30.1605C41.25 30.4299 41.1747 30.7389 41.1747 31.0876C41.1747 31.4362 41.25 31.7452 41.4005 32.0146C41.5511 32.284 41.7532 32.494 42.0067 32.6446C42.2603 32.7951 42.5297 32.8704 42.8149 32.8704ZM47.0485 28.0567H48.5104V28.7936H48.6055C48.7719 28.5321 49.0136 28.3142 49.3305 28.1399C49.6475 27.9576 50.012 27.8665 50.424 27.8665C50.9708 27.8665 51.466 28.0052 51.9097 28.2825C52.3614 28.5519 52.714 28.9323 52.9676 29.4236C53.2211 29.9148 53.3479 30.4695 53.3479 31.0876C53.3479 31.7135 53.2211 32.2722 52.9676 32.7634C52.714 33.2468 52.3614 33.6271 51.9097 33.9045C51.466 34.1739 50.9708 34.3086 50.424 34.3086C50.012 34.3086 49.6435 34.2214 49.3187 34.0471C49.0017 33.8728 48.764 33.6549 48.6055 33.3934H48.5104L48.6055 34.2492V36.6857H47.0485V28.0567ZM50.1507 32.8704C50.4438 32.8704 50.7172 32.7951 50.9708 32.6446C51.2243 32.494 51.4264 32.284 51.5769 32.0146C51.7275 31.7452 51.8028 31.4362 51.8028 31.0876C51.8028 30.7389 51.7275 30.4299 51.5769 30.1605C51.4264 29.8911 51.2243 29.685 50.9708 29.5424C50.7172 29.3919 50.4438 29.3166 50.1507 29.3166C49.8654 29.3166 49.596 29.3919 49.3424 29.5424C49.0889 29.685 48.8868 29.8911 48.7363 30.1605C48.5857 30.4299 48.5104 30.7389 48.5104 31.0876C48.5104 31.4362 48.5857 31.7452 48.7363 32.0146C48.8868 32.284 49.0889 32.494 49.3424 32.6446C49.596 32.7951 49.8654 32.8704 50.1507 32.8704Z" fill="white"/>
    <defs>
        <filter id="filter0_d" x="-34.8445" y="-2.94615" width="102.4" height="102.4" filterUnits="userSpaceOnUse" color-interpolation-filters="sRGB">
            <feFlood flood-opacity="0" result="BackgroundImageFix"/>
            <feColorMatrix in="SourceAlpha" type="matrix" values="0 0 0 0 0 0 0 0 0 0 0 0 0 0 0 0 0 0 127 0"/>
            <feOffset dy="2.03175"/>
            <feGaussianBlur stdDeviation="14.2222"/>
            <feColorMatrix type="matrix" values="0 0 0 0 0 0 0 0 0 0 0 0 0 0 0 0 0 0 0.15 0"/>
            <feBlend mode="normal" in2="BackgroundImageFix" result="effect1_dropShadow"/>
            <feBlend mode="normal" in="SourceGraphic" in2="effect1_dropShadow" result="shape"/>
        </filter>
        <filter id="filter1_d" x="-0.711048" y="-35.6571" width="130.133" height="130.133" filterUnits="userSpaceOnUse" color-interpolation-filters="sRGB">
            <feFlood flood-opacity="0" result="BackgroundImageFix"/>
            <feColorMatrix in="SourceAlpha" type="matrix" values="0 0 0 0 0 0 0 0 0 0 0 0 0 0 0 0 0 0 127 0"/>
            <feOffset dy="2.03175"/>
            <feGaussianBlur stdDeviation="14.2222"/>
            <feColorMatrix type="matrix" values="0 0 0 0 0 0 0 0 0 0 0 0 0 0 0 0 0 0 0.15 0"/>
            <feBlend mode="normal" in2="BackgroundImageFix" result="effect1_dropShadow"/>
            <feBlend mode="normal" in="SourceGraphic" in2="effect1_dropShadow" result="shape"/>
        </filter>
        <linearGradient id="paint0_linear" x1="35.9111" y1="23.4665" x2="-13.1556" y2="86.3999" gradientUnits="userSpaceOnUse">
            <stop offset="0.210545" stop-color="#8178FF" stop-opacity="0.8"/>
            <stop offset="1" stop-color="#5D54FF"/>
        </linearGradient>
        <linearGradient id="paint1_linear" x1="95.8278" y1="-9.24445" x2="16.8611" y2="92.0389" gradientUnits="userSpaceOnUse">
            <stop stop-color="#6055FF" stop-opacity="0.8"/>
            <stop offset="1" stop-color="#EDEDF8" stop-opacity="0"/>
        </linearGradient>
    </defs>
</svg>
