<svg width="19" height="27" viewBox="0 0 19 27" fill="none" xmlns="http://www.w3.org/2000/svg">
<path d="M13.7573 11.8229C13.8173 11.7292 13.8407 11.6692 13.85 11.6369C13.8004 11.6078 13.7348 11.5486 13.3767 11.5486C13.1733 11.5486 12.9179 11.5584 12.6472 11.597C12.9755 11.8781 13.0557 12.0202 13.2703 12.0202C13.3642 12.0206 13.6333 12.0161 13.7573 11.8229Z" fill="#DFDFEB"/>
<path d="M6.09055 15.1289C6.15057 15.1078 6.501 14.9299 7.15394 13.5886C6.29275 14.127 5.94232 14.5695 5.91735 14.8187C5.91292 14.8599 5.90204 14.9684 6.09055 15.1289Z" fill="#DFDFEB"/>
<path d="M18.563 17.9828V6.76601C18.563 6.42263 18.5259 6.16846 18.3414 5.9627L13.6541 0.746552C13.5135 0.590104 13.3185 0.5 13.1191 0.5H1.42911C0.951386 0.5 0.437012 0.910621 0.437012 1.81166V17.9828H18.563ZM12.9238 2.02011C12.9238 1.8148 13.1465 1.71214 13.277 1.85738L17.3433 6.38273C17.4738 6.52797 17.3816 6.77587 17.1971 6.77587H12.9238V2.02011ZM5.24321 14.735C5.31652 14.0052 6.12736 13.2414 7.65396 12.4632C8.25977 10.9856 8.83618 9.16518 9.17977 7.64418C8.77777 6.67053 8.38706 5.40728 8.67184 4.66628C8.77173 4.40673 8.8962 4.2077 9.12861 4.12163C9.22045 4.08756 9.45246 4.04452 9.53786 4.04452C9.74087 4.04452 9.91931 4.33545 10.0458 4.51476C10.1646 4.68332 10.4341 5.04059 9.89554 7.56394C10.4385 8.81194 11.2079 10.0833 11.945 10.9538C12.4731 10.8476 12.9274 10.7933 13.2976 10.7933C13.9284 10.7933 14.3106 10.9569 14.4665 11.2941C14.5954 11.5729 14.5426 11.8988 14.3094 12.2623C14.0851 12.6115 13.7757 12.7962 13.4152 12.7962C12.9254 12.7962 12.355 12.4519 11.719 11.7719C10.5763 12.0377 9.2414 12.512 8.1631 13.0369C7.82636 13.8322 7.50372 14.4728 7.20323 14.9426C6.79117 15.5872 6.43509 15.8871 6.08265 15.8871C5.94247 15.8871 5.80794 15.8364 5.69314 15.741C5.27302 15.39 5.21663 15.0004 5.24321 14.735Z" fill="#DFDFEB"/>
<path d="M6.36687 21.0569C6.30967 20.969 6.22992 20.8955 6.1272 20.8363C6.02449 20.7771 5.88834 20.7476 5.71957 20.7476H5.22412V22.5371H5.82993C5.91049 22.5371 5.99025 22.5218 6.0696 22.4909C6.14855 22.4604 6.22105 22.4102 6.28711 22.3407C6.35317 22.2712 6.40634 22.1744 6.44662 22.0498C6.4869 21.9252 6.50704 21.771 6.50704 21.5872C6.50704 21.5137 6.49778 21.4285 6.47965 21.333C6.46112 21.2371 6.42366 21.1452 6.36687 21.0569Z" fill="#DFDFEB"/>
<path d="M9.63812 8.64697C9.34972 9.75601 8.96988 10.9534 8.56104 12.0377C9.40289 11.6742 10.318 11.3568 11.1776 11.1322C10.6338 10.4293 10.0905 9.55159 9.63812 8.64697Z" fill="#DFDFEB"/>
<path d="M0.437012 18.8794V25.6035C0.437012 26.0559 0.928427 26.5001 1.42911 26.5001H17.5709C18.0716 26.5001 18.563 26.0559 18.563 25.6035V18.8794H0.437012ZM7.04131 22.2096C6.97162 22.3957 6.87415 22.5521 6.74928 22.6785C6.62441 22.805 6.47376 22.9031 6.29774 22.9726C6.12172 23.0421 5.92676 23.0766 5.71408 23.0766H5.22388V24.707H4.56288V20.1902H5.7302C5.90259 20.1902 6.07338 20.2206 6.24215 20.2821C6.41093 20.3435 6.56238 20.4354 6.69651 20.5577C6.83064 20.6801 6.939 20.8285 7.02157 21.002C7.10414 21.1755 7.14563 21.3705 7.14563 21.5874C7.14604 21.8165 7.11099 22.0236 7.04131 22.2096ZM11.0919 23.2761C11.0202 23.5397 10.9295 23.7602 10.8192 23.9382C10.7088 24.1162 10.5851 24.256 10.4474 24.3582C10.3096 24.4604 10.1767 24.5366 10.0482 24.5882C9.91971 24.6393 9.80209 24.672 9.69575 24.6864C9.58941 24.6998 9.51047 24.707 9.45891 24.707H7.92263V20.1902H9.14513C9.4867 20.1902 9.78679 20.2507 10.0454 20.3708C10.304 20.4909 10.5191 20.6519 10.6899 20.8518C10.8606 21.0517 10.9879 21.2799 11.0725 21.535C11.1567 21.7901 11.199 22.0527 11.199 22.3226C11.1994 22.6947 11.1636 23.0125 11.0919 23.2761ZM14.6961 20.7478H12.8291V22.1697H14.5253V22.6723H12.8291V24.707H12.1573V20.1902H14.6961V20.7478Z" fill="#DFDFEB"/>
<path d="M10.211 21.2471C10.0954 21.0979 9.93835 20.9773 9.74018 20.8854C9.542 20.7935 9.28501 20.7473 8.96922 20.7473H8.58374V24.1672H9.23909C9.68701 24.1672 10.0101 24.0081 10.2082 23.6894C10.4064 23.3706 10.5055 22.9089 10.5055 22.3042C10.5055 22.1164 10.4854 21.9303 10.4451 21.7465C10.4044 21.5627 10.3267 21.3964 10.211 21.2471Z" fill="#DFDFEB"/>
<path d="M9.39366 4.85357C9.35418 4.86837 8.85793 5.6412 9.43233 6.29523C9.81459 5.34713 9.41098 4.8473 9.39366 4.85357Z" fill="#DFDFEB"/>
</svg>
